<svg width="341" height="61" viewBox="0 0 341 61" fill="none" xmlns="http://www.w3.org/2000/svg">
<path d="M0.75 20.4877C0.75 9.63387 9.54878 0.835075 20.4026 0.835075V0.835075V29.2797H0.75V20.4877Z" fill="#278EFF" stroke="#278EFF" stroke-width="0.805851"/>
<rect x="0.75" y="29.2797" width="19.6526" height="1.93794" fill="#278EFF" stroke="#278EFF" stroke-width="0.805851"/>
<path d="M0.75 40.0096C0.75 50.8634 9.54878 59.6622 20.4026 59.6622V59.6622V31.2176H0.75V40.0096Z" fill="#278EFF" stroke="#278EFF" stroke-width="0.805851"/>
<rect x="20.4026" y="0.835075" width="290.877" height="58.8271" fill="#278EFF"/>
<rect x="20.4026" y="0.835075" width="290.877" height="58.8271" stroke="#278EFF" stroke-width="0.805851"/>
<path d="M330.932 20.4877C330.932 9.63387 322.134 0.835075 311.28 0.835075V0.835075V29.2797H330.932V20.4877Z" fill="#278EFF" stroke="#278EFF" stroke-width="0.805851"/>
<rect width="19.6526" height="1.93794" transform="matrix(-1 0 0 1 330.932 29.2798)" fill="#278EFF" stroke="#278EFF" stroke-width="0.805851"/>
<path d="M311.28 31.2179V59.6622C316.039 59.6622 320.403 57.9698 323.804 55.1544C327.196 57.4145 332.635 59.5642 339.207 58.3692C337.397 57.5934 330.416 52.939 330.674 43.63C330.643 43.6722 330.609 43.7117 330.576 43.752C330.809 42.5405 330.933 41.2896 330.933 40.0099V31.2179H311.28Z" fill="#278EFF"/>
<path d="M311.28 31.2179H310.877V30.8149H311.28V31.2179ZM311.28 59.6622V60.0651H310.877V59.6622H311.28ZM323.804 55.1544L323.547 54.844L323.778 54.6529L324.027 54.8191L323.804 55.1544ZM339.207 58.3692L339.366 57.9989L340.596 58.5262L339.279 58.7657L339.207 58.3692ZM330.674 43.63L330.348 43.393L331.113 42.3415L331.077 43.6412L330.674 43.63ZM330.576 43.752L330.887 44.0083L330.18 43.6758L330.576 43.752ZM330.933 40.0099L331.336 40.0099L331.336 40.0099L330.933 40.0099ZM330.933 31.2179V30.8149H331.336V31.2179H330.933ZM311.28 31.2179H311.683V59.6622H311.28H310.877V31.2179H311.28ZM311.28 59.6622V59.2593C315.942 59.2593 320.216 57.6018 323.547 54.844L323.804 55.1544L324.061 55.4648C320.591 58.3377 316.137 60.0651 311.28 60.0651V59.6622ZM323.804 55.1544L324.027 54.8191C327.357 57.0376 332.692 59.1444 339.135 57.9728L339.207 58.3692L339.279 58.7657C332.579 59.984 327.035 57.7913 323.581 55.4897L323.804 55.1544ZM339.207 58.3692L339.049 58.7396C338.082 58.3252 335.831 56.9266 333.85 54.4512C331.862 51.966 330.139 48.3845 330.271 43.6188L330.674 43.63L331.077 43.6412C330.951 48.1845 332.589 51.5846 334.48 53.9478C336.378 56.3209 338.523 57.6374 339.366 57.9989L339.207 58.3692ZM330.674 43.63L331 43.867C330.96 43.9224 330.909 43.9809 330.887 44.0083L330.576 43.752L330.265 43.4958C330.309 43.4424 330.327 43.4221 330.348 43.393L330.674 43.63ZM330.576 43.752L330.18 43.6758C330.409 42.4889 330.53 41.2635 330.53 40.0099L330.933 40.0099L331.336 40.0099C331.336 41.3156 331.21 42.5921 330.971 43.8283L330.576 43.752ZM330.933 40.0099H330.53V31.2179H330.933H331.336V40.0099H330.933ZM330.933 31.2179V31.6208H311.28V31.2179V30.8149H330.933V31.2179Z" fill="#278EFF"/>
</svg>
