<svg width="423" height="75" viewBox="0 0 423 75" fill="none" xmlns="http://www.w3.org/2000/svg">
<path d="M12.2684 25.3875C12.2684 11.9186 23.187 1.00003 36.6559 1.00003V36.2976H12.2684V25.3875Z" fill="#26252A" stroke="#26252A"/>
<rect x="12.2684" y="36.2976" width="24.3874" height="2.40483" fill="#26252A" stroke="#26252A"/>
<path fill-rule="evenodd" clip-rule="evenodd" d="M12.7111 54.262C12.4205 52.7569 12.2684 51.2025 12.2684 49.6126V38.7024H36.6558V74C30.7502 74 25.3349 71.9009 21.1153 68.4081C16.9056 71.2126 10.1554 73.8784 2 72.3956C4.24621 71.4329 12.9102 65.6569 12.5893 54.105C12.6282 54.1585 12.6688 54.2109 12.7111 54.262Z" fill="#26252A"/>
<path d="M12.7111 54.262L12.3256 54.5805L13.202 54.1672L12.7111 54.262ZM12.2684 38.7024V38.2024H11.7684V38.7024H12.2684ZM36.6558 38.7024H37.1558V38.2024H36.6558V38.7024ZM36.6558 74V74.5H37.1558V74H36.6558ZM21.1153 68.4081L21.4341 68.0229L21.1476 67.7857L20.8381 67.992L21.1153 68.4081ZM2 72.3956L1.80304 71.936L0.276214 72.5904L1.91056 72.8875L2 72.3956ZM12.5893 54.105L12.9936 53.8109L12.0447 52.5061L12.0895 54.1189L12.5893 54.105ZM11.7684 49.6126C11.7684 51.2345 11.9236 52.8206 12.2201 54.3567L13.202 54.1672C12.9175 52.6932 12.7684 51.1705 12.7684 49.6126H11.7684ZM11.7684 38.7024V49.6126H12.7684V38.7024H11.7684ZM36.6558 38.2024H12.2684V39.2024H36.6558V38.2024ZM37.1558 74V38.7024H36.1558V74H37.1558ZM20.7965 68.7932C25.1024 72.3575 30.6296 74.5 36.6558 74.5V73.5C30.8709 73.5 25.5674 71.4442 21.4341 68.0229L20.7965 68.7932ZM1.91056 72.8875C10.2252 74.3993 17.1053 71.6803 21.3925 68.8242L20.8381 67.992C16.7058 70.7448 10.0856 73.3575 2.08944 71.9036L1.91056 72.8875ZM12.0895 54.1189C12.2461 59.7569 10.213 63.9763 7.86687 66.9089C5.51094 69.8538 2.84955 71.4875 1.80304 71.936L2.19696 72.8551C3.39666 72.341 6.19035 70.6053 8.64773 67.5336C11.1149 64.4496 13.2534 60.0051 13.0891 54.0911L12.0895 54.1189ZM13.0965 53.9435C13.0607 53.9002 13.0264 53.856 12.9936 53.8109L12.1849 54.3991C12.23 54.4611 12.2769 54.5215 12.3256 54.5805L13.0965 53.9435Z" fill="#26252A"/>
<rect x="36.6558" y="1" width="360.957" height="73" fill="#26252A"/>
<rect x="36.6558" y="1" width="360.957" height="73" stroke="#26252A"/>
<path d="M422 25.3874C422 11.9186 411.081 1 397.613 1V36.2976H422V25.3874Z" fill="#26252A" stroke="#26252A"/>
<rect width="24.3874" height="2.40483" transform="matrix(-1 0 0 1 422 36.2976)" fill="#26252A" stroke="#26252A"/>
<path d="M422 49.6126C422 63.0814 411.081 74 397.613 74V38.7024H422V49.6126Z" fill="#26252A" stroke="#26252A"/>
</svg>
