<svg width="318" height="75" viewBox="0 0 318 75" fill="none" xmlns="http://www.w3.org/2000/svg">
<path d="M1 25.3874C1 11.9186 11.9186 1 25.3874 1V36.2976H1V25.3874Z" fill="#278EFF" stroke="#278EFF"/>
<rect x="1" y="36.2976" width="24.3874" height="2.40483" fill="#278EFF" stroke="#278EFF"/>
<path d="M1 49.6126C1 63.0814 11.9186 74 25.3874 74V38.7024H1V49.6126Z" fill="#278EFF" stroke="#278EFF"/>
<rect x="25.3874" y="1" width="255.957" height="73" fill="#278EFF"/>
<rect x="25.3874" y="1" width="255.957" height="73" stroke="#278EFF"/>
<path d="M305.732 25.3875C305.732 11.9186 294.813 1.00003 281.344 1.00003V36.2976H305.732V25.3875Z" fill="#278EFF" stroke="#278EFF"/>
<rect width="24.3874" height="2.40483" transform="matrix(-1 0 0 1 305.732 36.2976)" fill="#278EFF" stroke="#278EFF"/>
<path fill-rule="evenodd" clip-rule="evenodd" d="M305.289 54.262C305.579 52.7569 305.732 51.2025 305.732 49.6126V38.7025H281.344V74C287.25 74 292.665 71.9009 296.885 68.4081C301.094 71.2126 307.845 73.8784 316 72.3956C313.754 71.4329 305.09 65.657 305.411 54.105C305.372 54.1586 305.331 54.2109 305.289 54.262Z" fill="#278EFF"/>
<path d="M305.289 54.262L305.674 54.5805L304.798 54.1673L305.289 54.262ZM305.732 38.7025V38.2025H306.232V38.7025H305.732ZM281.344 38.7025H280.844V38.2025H281.344V38.7025ZM281.344 74V74.5H280.844V74H281.344ZM296.885 68.4081L296.566 68.0229L296.852 67.7858L297.162 67.992L296.885 68.4081ZM316 72.3956L316.197 71.936L317.724 72.5904L316.089 72.8875L316 72.3956ZM305.411 54.105L305.006 53.811L305.955 52.5061L305.911 54.1189L305.411 54.105ZM306.232 49.6126C306.232 51.2345 306.076 52.8206 305.78 54.3568L304.798 54.1673C305.083 52.6932 305.232 51.1706 305.232 49.6126H306.232ZM306.232 38.7025V49.6126H305.232V38.7025H306.232ZM281.344 38.2025H305.732V39.2025H281.344V38.2025ZM280.844 74V38.7025H281.844V74H280.844ZM297.204 68.7933C292.898 72.3576 287.37 74.5 281.344 74.5V73.5C287.129 73.5 292.433 71.4443 296.566 68.0229L297.204 68.7933ZM316.089 72.8875C307.775 74.3993 300.895 71.6803 296.607 68.8242L297.162 67.992C301.294 70.7449 307.914 73.3575 315.911 71.9037L316.089 72.8875ZM305.911 54.1189C305.754 59.7569 307.787 63.9763 310.133 66.909C312.489 69.8539 315.15 71.4875 316.197 71.936L315.803 72.8552C314.603 72.341 311.81 70.6054 309.352 67.5336C306.885 64.4496 304.747 60.0051 304.911 54.0912L305.911 54.1189ZM304.903 53.9435C304.939 53.9002 304.974 53.856 305.006 53.811L305.815 54.3991C305.77 54.4611 305.723 54.5216 305.674 54.5805L304.903 53.9435Z" fill="#278EFF"/>
</svg>
