<svg width="213" height="75" viewBox="0 0 213 75" fill="none" xmlns="http://www.w3.org/2000/svg">
<path d="M1 25.3874C1 11.9186 11.9186 1 25.3874 1V36.2976H1V25.3874Z" fill="#278EFF" stroke="#278EFF"/>
<rect x="1" y="36.2976" width="24.3874" height="2.40483" fill="#278EFF" stroke="#278EFF"/>
<path d="M1 49.6126C1 63.0814 11.9186 74 25.3874 74V38.7024H1V49.6126Z" fill="#278EFF" stroke="#278EFF"/>
<rect x="25.3874" y="1" width="150.957" height="73" fill="#278EFF"/>
<rect x="25.3874" y="1" width="150.957" height="73" stroke="#278EFF"/>
<path d="M200.732 25.3875C200.732 11.9186 189.813 1.00003 176.344 1.00003V36.2976H200.732V25.3875Z" fill="#278EFF" stroke="#278EFF"/>
<rect width="24.3874" height="2.40483" transform="matrix(-1 0 0 1 200.732 36.2976)" fill="#278EFF" stroke="#278EFF"/>
<path fill-rule="evenodd" clip-rule="evenodd" d="M200.289 54.262C200.579 52.7569 200.732 51.2025 200.732 49.6126V38.7025H176.344V74C182.25 74 187.665 71.9009 191.885 68.4081C196.094 71.2126 202.845 73.8784 211 72.3956C208.754 71.4329 200.09 65.657 200.411 54.105C200.372 54.1586 200.331 54.2109 200.289 54.262Z" fill="#278EFF"/>
<path d="M200.289 54.262L200.674 54.5805L199.798 54.1673L200.289 54.262ZM200.732 38.7025V38.2025H201.232V38.7025H200.732ZM176.344 38.7025H175.844V38.2025H176.344V38.7025ZM176.344 74V74.5H175.844V74H176.344ZM191.885 68.4081L191.566 68.0229L191.852 67.7858L192.162 67.992L191.885 68.4081ZM211 72.3956L211.197 71.936L212.724 72.5904L211.089 72.8875L211 72.3956ZM200.411 54.105L200.006 53.811L200.955 52.5061L200.911 54.1189L200.411 54.105ZM201.232 49.6126C201.232 51.2345 201.076 52.8206 200.78 54.3568L199.798 54.1673C200.083 52.6932 200.232 51.1706 200.232 49.6126H201.232ZM201.232 38.7025V49.6126H200.232V38.7025H201.232ZM176.344 38.2025H200.732V39.2025H176.344V38.2025ZM175.844 74V38.7025H176.844V74H175.844ZM192.204 68.7933C187.898 72.3576 182.37 74.5 176.344 74.5V73.5C182.129 73.5 187.433 71.4443 191.566 68.0229L192.204 68.7933ZM211.089 72.8875C202.775 74.3993 195.895 71.6803 191.607 68.8242L192.162 67.992C196.294 70.7449 202.914 73.3575 210.911 71.9037L211.089 72.8875ZM200.911 54.1189C200.754 59.7569 202.787 63.9763 205.133 66.909C207.489 69.8539 210.15 71.4875 211.197 71.936L210.803 72.8552C209.603 72.341 206.81 70.6054 204.352 67.5336C201.885 64.4496 199.747 60.0051 199.911 54.0912L200.911 54.1189ZM199.903 53.9435C199.939 53.9002 199.974 53.856 200.006 53.811L200.815 54.3991C200.77 54.4611 200.723 54.5216 200.674 54.5805L199.903 53.9435Z" fill="#278EFF"/>
</svg>
