<svg width="423" height="75" viewBox="0 0 423 75" fill="none" xmlns="http://www.w3.org/2000/svg">
<path d="M1 25.3874C1 11.9186 11.9186 1 25.3874 1V36.2976H1V25.3874Z" fill="#278EFF" stroke="#278EFF"/>
<rect x="1" y="36.2976" width="24.3874" height="2.40483" fill="#278EFF" stroke="#278EFF"/>
<path d="M1 49.6126C1 63.0814 11.9186 74 25.3874 74V38.7024H1V49.6126Z" fill="#278EFF" stroke="#278EFF"/>
<rect x="25.3874" y="1" width="360.957" height="73" fill="#278EFF"/>
<rect x="25.3874" y="1" width="360.957" height="73" stroke="#278EFF"/>
<path d="M410.732 25.3875C410.732 11.9186 399.813 1.00003 386.344 1.00003V36.2976H410.732V25.3875Z" fill="#278EFF" stroke="#278EFF"/>
<rect width="24.3874" height="2.40483" transform="matrix(-1 0 0 1 410.732 36.2976)" fill="#278EFF" stroke="#278EFF"/>
<path fill-rule="evenodd" clip-rule="evenodd" d="M410.289 54.262C410.579 52.7569 410.732 51.2025 410.732 49.6126V38.7025H386.344V74C392.25 74 397.665 71.9009 401.885 68.4081C406.094 71.2126 412.845 73.8784 421 72.3956C418.754 71.4329 410.09 65.657 410.411 54.105C410.372 54.1586 410.331 54.2109 410.289 54.262Z" fill="#278EFF"/>
<path d="M410.289 54.262L410.674 54.5805L409.798 54.1673L410.289 54.262ZM410.732 38.7025V38.2025H411.232V38.7025H410.732ZM386.344 38.7025H385.844V38.2025H386.344V38.7025ZM386.344 74V74.5H385.844V74H386.344ZM401.885 68.4081L401.566 68.0229L401.852 67.7858L402.162 67.992L401.885 68.4081ZM421 72.3956L421.197 71.936L422.724 72.5904L421.089 72.8875L421 72.3956ZM410.411 54.105L410.006 53.811L410.955 52.5061L410.911 54.1189L410.411 54.105ZM411.232 49.6126C411.232 51.2345 411.076 52.8206 410.78 54.3568L409.798 54.1673C410.083 52.6932 410.232 51.1706 410.232 49.6126H411.232ZM411.232 38.7025V49.6126H410.232V38.7025H411.232ZM386.344 38.2025H410.732V39.2025H386.344V38.2025ZM385.844 74V38.7025H386.844V74H385.844ZM402.204 68.7933C397.898 72.3576 392.37 74.5 386.344 74.5V73.5C392.129 73.5 397.433 71.4443 401.566 68.0229L402.204 68.7933ZM421.089 72.8875C412.775 74.3993 405.895 71.6803 401.607 68.8242L402.162 67.992C406.294 70.7449 412.914 73.3575 420.911 71.9037L421.089 72.8875ZM410.911 54.1189C410.754 59.7569 412.787 63.9763 415.133 66.909C417.489 69.8539 420.15 71.4875 421.197 71.936L420.803 72.8552C419.603 72.341 416.81 70.6054 414.352 67.5336C411.885 64.4496 409.747 60.0051 409.911 54.0912L410.911 54.1189ZM409.903 53.9435C409.939 53.9002 409.974 53.856 410.006 53.811L410.815 54.3991C410.77 54.4611 410.723 54.5216 410.674 54.5805L409.903 53.9435Z" fill="#278EFF"/>
</svg>
