<svg width="423" height="112" viewBox="0 0 423 112" fill="none" xmlns="http://www.w3.org/2000/svg">
<path d="M12.2684 25.3875C12.2684 11.9186 23.187 1.00003 36.6559 1.00003V36.2976H12.2684V25.3875Z" fill="#26252A" stroke="#26252A"/>
<rect x="12.2684" y="36.2976" width="24.3874" height="39.4048" fill="#26252A" stroke="#26252A"/>
<path fill-rule="evenodd" clip-rule="evenodd" d="M12.7111 91.262C12.4205 89.7569 12.2684 88.2025 12.2684 86.6126V75.7024H36.6558V111C30.7502 111 25.3349 108.901 21.1153 105.408C16.9056 108.213 10.1554 110.878 2 109.396C4.24621 108.433 12.9102 102.657 12.5893 91.105C12.6282 91.1585 12.6688 91.2109 12.7111 91.262Z" fill="#26252A"/>
<path d="M12.7111 91.262L12.3256 91.5805L13.202 91.1672L12.7111 91.262ZM12.2684 75.7024V75.2024H11.7684V75.7024H12.2684ZM36.6558 75.7024H37.1558V75.2024H36.6558V75.7024ZM36.6558 111V111.5H37.1558V111H36.6558ZM21.1153 105.408L21.4341 105.023L21.1476 104.786L20.8381 104.992L21.1153 105.408ZM2 109.396L1.80304 108.936L0.276214 109.59L1.91056 109.888L2 109.396ZM12.5893 91.105L12.9936 90.8109L12.0447 89.5061L12.0895 91.1189L12.5893 91.105ZM11.7684 86.6126C11.7684 88.2345 11.9236 89.8206 12.2201 91.3567L13.202 91.1672C12.9175 89.6932 12.7684 88.1705 12.7684 86.6126H11.7684ZM11.7684 75.7024V86.6126H12.7684V75.7024H11.7684ZM36.6558 75.2024H12.2684V76.2024H36.6558V75.2024ZM37.1558 111V75.7024H36.1558V111H37.1558ZM20.7965 105.793C25.1024 109.358 30.6296 111.5 36.6558 111.5V110.5C30.8709 110.5 25.5674 108.444 21.4341 105.023L20.7965 105.793ZM1.91056 109.888C10.2252 111.399 17.1053 108.68 21.3925 105.824L20.8381 104.992C16.7058 107.745 10.0856 110.357 2.08944 108.904L1.91056 109.888ZM12.0895 91.1189C12.2461 96.7569 10.213 100.976 7.86687 103.909C5.51094 106.854 2.84955 108.487 1.80304 108.936L2.19696 109.855C3.39666 109.341 6.19035 107.605 8.64773 104.534C11.1149 101.45 13.2534 97.0051 13.0891 91.0911L12.0895 91.1189ZM13.0965 90.9435C13.0607 90.9002 13.0264 90.856 12.9936 90.8109L12.1849 91.3991C12.23 91.4611 12.2769 91.5215 12.3256 91.5805L13.0965 90.9435Z" fill="#26252A"/>
<rect x="36.6558" y="1.00003" width="360.957" height="110" fill="#26252A"/>
<rect x="36.6558" y="1.00003" width="360.957" height="110" stroke="#26252A"/>
<path d="M422 25.3874C422 11.9186 411.081 1 397.613 1V36.2976H422V25.3874Z" fill="#26252A" stroke="#26252A"/>
<rect width="24.3874" height="39.4048" transform="matrix(-1 0 0 1 422 36.2976)" fill="#26252A" stroke="#26252A"/>
<path d="M422 86.6126C422 100.081 411.081 111 397.613 111V75.7024H422V86.6126Z" fill="#26252A" stroke="#26252A"/>
</svg>
