<svg width="315" height="240" viewBox="0 0 315 240" fill="none" xmlns="http://www.w3.org/2000/svg">
<g filter="url(#filter0_d_2_1376)">
<g clip-path="url(#clip0_2_1376)">
<g clip-path="url(#clip1_2_1376)">
<rect width="251" height="176" transform="translate(32 32)" fill="#B3B3B3" fill-opacity="0.82"/>
<rect width="251" height="176" transform="translate(32 32)" fill="#383838" style="mix-blend-mode:color-dodge"/>
</g>
<mask id="path-2-outside-1_2_1376" maskUnits="userSpaceOnUse" x="32.5" y="32" width="250" height="45" fill="black">
<rect fill="white" x="32.5" y="32" width="250" height="45"/>
<path d="M32.5 32H282.5V76H32.5V32Z"/>
</mask>
<path d="M282.5 76V75.5H32.5V76V76.5H282.5V76Z" fill="#808080" fill-opacity="0.55" mask="url(#path-2-outside-1_2_1376)"/>
<path d="M49.0728 60L53.4888 48.022H54.6343V49.9561H54.1611L50.6416 60H49.0728ZM51.0732 56.5718L51.5381 55.3018H56.9502L57.415 56.5718H51.0732ZM57.8135 60L54.2939 49.9561V48.022H54.9663L59.3823 60H57.8135ZM64.0324 60.1577C63.1968 60.1577 62.4719 59.9668 61.8576 59.585C61.2433 59.2031 60.7674 58.6636 60.4299 57.9663C60.0923 57.269 59.9235 56.4473 59.9235 55.501V55.4844C59.9235 54.5547 60.0895 53.7467 60.4216 53.0605C60.7591 52.3743 61.235 51.8431 61.8493 51.4668C62.4636 51.085 63.1885 50.894 64.0241 50.894C64.749 50.894 65.3744 51.0213 65.9001 51.2759C66.4258 51.5304 66.8464 51.8735 67.1618 52.3052C67.4772 52.7313 67.6792 53.21 67.7678 53.7412L67.7761 53.791H66.34L66.3317 53.7661C66.221 53.3234 65.9693 52.9471 65.5763 52.6372C65.1834 52.3273 64.666 52.1724 64.0241 52.1724C63.4873 52.1724 63.0225 52.3079 62.6296 52.5791C62.2367 52.8503 61.9323 53.2349 61.7165 53.7329C61.5062 54.2254 61.4011 54.8092 61.4011 55.4844V55.501C61.4011 56.1872 61.509 56.7848 61.7248 57.2939C61.9406 57.7975 62.245 58.1877 62.6379 58.4644C63.0308 58.741 63.4929 58.8794 64.0241 58.8794C64.6273 58.8794 65.1198 58.7493 65.5016 58.4893C65.8835 58.2292 66.1574 57.8501 66.3234 57.3521L66.34 57.3022L67.7678 57.2939L67.7512 57.3853C67.6294 57.922 67.4136 58.4007 67.1037 58.8213C66.7938 59.2363 66.3843 59.5628 65.8752 59.8008C65.3661 60.0387 64.7518 60.1577 64.0324 60.1577ZM72.7997 60.0664C71.881 60.0664 71.2142 59.881 70.7992 59.5103C70.3897 59.1395 70.1849 58.528 70.1849 57.6758V52.2471H68.7738V51.0518H70.1849V48.7358H71.6791V51.0518H73.638V52.2471H71.6791V57.3105C71.6791 57.8363 71.7787 58.2153 71.9779 58.4478C72.1771 58.6746 72.5091 58.7881 72.974 58.7881C73.1013 58.7881 73.2092 58.7853 73.2977 58.7798C73.3918 58.7743 73.5052 58.766 73.638 58.7549V59.9834C73.4997 60.0055 73.3614 60.0249 73.223 60.0415C73.0847 60.0581 72.9435 60.0664 72.7997 60.0664ZM75.3995 60V51.0518H76.8438V60H75.3995ZM76.1299 49.3252C75.8588 49.3252 75.6236 49.2284 75.4244 49.0347C75.2307 48.8354 75.1338 48.6003 75.1338 48.3291C75.1338 48.0524 75.2307 47.8172 75.4244 47.6235C75.6236 47.4299 75.8588 47.333 76.1299 47.333C76.4066 47.333 76.6418 47.4299 76.8355 47.6235C77.0292 47.8172 77.126 48.0524 77.126 48.3291C77.126 48.6003 77.0292 48.8354 76.8355 49.0347C76.6418 49.2284 76.4066 49.3252 76.1299 49.3252ZM82.8137 60.1577C81.967 60.1577 81.2338 59.9723 80.614 59.6016C79.9997 59.2253 79.5238 58.6912 79.1863 57.9995C78.8542 57.3078 78.6882 56.486 78.6882 55.5342V55.5176C78.6882 54.5602 78.8542 53.7357 79.1863 53.0439C79.5238 52.3522 79.9997 51.821 80.614 51.4502C81.2338 51.0794 81.967 50.894 82.8137 50.894C83.6659 50.894 84.3991 51.0794 85.0134 51.4502C85.6277 51.821 86.1008 52.3522 86.4328 53.0439C86.7704 53.7357 86.9392 54.5602 86.9392 55.5176V55.5342C86.9392 56.486 86.7704 57.3078 86.4328 57.9995C86.1008 58.6912 85.6277 59.2253 85.0134 59.6016C84.3991 59.9723 83.6659 60.1577 82.8137 60.1577ZM82.8137 58.8794C83.3781 58.8794 83.8568 58.7466 84.2497 58.481C84.6426 58.2153 84.9415 57.8335 85.1462 57.3354C85.3565 56.8374 85.4616 56.237 85.4616 55.5342V55.5176C85.4616 54.8092 85.3565 54.2061 85.1462 53.708C84.9415 53.21 84.6426 52.8309 84.2497 52.5708C83.8568 52.3052 83.3781 52.1724 82.8137 52.1724C82.2492 52.1724 81.7706 52.3052 81.3777 52.5708C80.9848 52.8309 80.6832 53.21 80.4729 53.708C80.2681 54.2061 80.1657 54.8092 80.1657 55.5176V55.5342C80.1657 56.237 80.2681 56.8374 80.4729 57.3354C80.6832 57.8335 80.9848 58.2153 81.3777 58.481C81.7706 58.7466 82.2492 58.8794 82.8137 58.8794ZM88.7504 60V51.0518H90.1947V52.3965H90.3275C90.5544 51.9206 90.8809 51.5526 91.307 51.2925C91.7331 51.0269 92.2755 50.894 92.934 50.894C93.9411 50.894 94.7131 51.1818 95.2499 51.7573C95.7922 52.3273 96.0634 53.1436 96.0634 54.2061V60H94.619V54.5547C94.619 53.7467 94.4475 53.1491 94.1044 52.7617C93.7668 52.3688 93.2411 52.1724 92.5272 52.1724C92.0513 52.1724 91.6391 52.2747 91.2904 52.4795C90.9418 52.6842 90.6706 52.9748 90.477 53.3511C90.2888 53.7274 90.1947 54.1784 90.1947 54.7041V60H88.7504ZM105.521 60V49.6821H105.388L102.342 51.8901V50.313L105.53 48.022H107.015V60H105.521Z" fill="black"/>
<path d="M248.855 51.2529V49.4517C248.855 48.5939 249.071 47.952 249.502 47.5259C249.94 47.0942 250.593 46.8784 251.461 46.8784H253.196V48.2148H251.478C251.063 48.2148 250.745 48.3255 250.523 48.5469C250.302 48.7627 250.191 49.0864 250.191 49.5181V51.2529H248.855ZM254.333 48.2148V46.8784H258.658V48.2148H254.333ZM262.8 51.2529V49.5181C262.8 49.0864 262.687 48.7627 262.46 48.5469C262.239 48.3255 261.923 48.2148 261.514 48.2148H259.795V46.8784H261.53C262.399 46.8784 263.049 47.0942 263.481 47.5259C263.918 47.952 264.137 48.5939 264.137 49.4517V51.2529H262.8ZM262.8 56.6484V52.3901H264.137V56.6484H262.8ZM259.795 62.1602V60.8237H261.514C261.923 60.8237 262.239 60.7158 262.46 60.5C262.687 60.2786 262.8 59.9521 262.8 59.5205V57.7856H264.137V59.5869C264.137 60.4447 263.918 61.0866 263.481 61.5127C263.049 61.9443 262.399 62.1602 261.53 62.1602H259.795ZM254.333 62.1602V60.8237H258.658V62.1602H254.333ZM251.461 62.1602C250.593 62.1602 249.94 61.9443 249.502 61.5127C249.071 61.0866 248.855 60.4447 248.855 59.5869V57.7856H250.191V59.5205C250.191 59.9521 250.302 60.2786 250.523 60.5C250.745 60.7158 251.063 60.8237 251.478 60.8237H253.196V62.1602H251.461ZM248.855 56.6484V52.3901H250.191V56.6484H248.855Z" fill="black"/>
<mask id="path-6-outside-2_2_1376" maskUnits="userSpaceOnUse" x="32.5" y="76" width="250" height="45" fill="black">
<rect fill="white" x="32.5" y="76" width="250" height="45"/>
<path d="M32.5 76H282.5V120H32.5V76Z"/>
</mask>
<path d="M282.5 120V119.5H32.5V120V120.5H282.5V120Z" fill="#808080" fill-opacity="0.55" mask="url(#path-6-outside-2_2_1376)"/>
<path d="M49.0728 104L53.4888 92.022H54.6343V93.9561H54.1611L50.6416 104H49.0728ZM51.0732 100.572L51.5381 99.3018H56.9502L57.415 100.572H51.0732ZM57.8135 104L54.2939 93.9561V92.022H54.9663L59.3823 104H57.8135ZM64.0324 104.158C63.1968 104.158 62.4719 103.967 61.8576 103.585C61.2433 103.203 60.7674 102.664 60.4299 101.966C60.0923 101.269 59.9235 100.447 59.9235 99.501V99.4844C59.9235 98.5547 60.0895 97.7467 60.4216 97.0605C60.7591 96.3743 61.235 95.8431 61.8493 95.4668C62.4636 95.085 63.1885 94.894 64.0241 94.894C64.749 94.894 65.3744 95.0213 65.9001 95.2759C66.4258 95.5304 66.8464 95.8735 67.1618 96.3052C67.4772 96.7313 67.6792 97.21 67.7678 97.7412L67.7761 97.791H66.34L66.3317 97.7661C66.221 97.3234 65.9693 96.9471 65.5763 96.6372C65.1834 96.3273 64.666 96.1724 64.0241 96.1724C63.4873 96.1724 63.0225 96.3079 62.6296 96.5791C62.2367 96.8503 61.9323 97.2349 61.7165 97.7329C61.5062 98.2254 61.4011 98.8092 61.4011 99.4844V99.501C61.4011 100.187 61.509 100.785 61.7248 101.294C61.9406 101.798 62.245 102.188 62.6379 102.464C63.0308 102.741 63.4929 102.879 64.0241 102.879C64.6273 102.879 65.1198 102.749 65.5016 102.489C65.8835 102.229 66.1574 101.85 66.3234 101.352L66.34 101.302L67.7678 101.294L67.7512 101.385C67.6294 101.922 67.4136 102.401 67.1037 102.821C66.7938 103.236 66.3843 103.563 65.8752 103.801C65.3661 104.039 64.7518 104.158 64.0324 104.158ZM72.7997 104.066C71.881 104.066 71.2142 103.881 70.7992 103.51C70.3897 103.139 70.1849 102.528 70.1849 101.676V96.2471H68.7738V95.0518H70.1849V92.7358H71.6791V95.0518H73.638V96.2471H71.6791V101.311C71.6791 101.836 71.7787 102.215 71.9779 102.448C72.1771 102.675 72.5091 102.788 72.974 102.788C73.1013 102.788 73.2092 102.785 73.2977 102.78C73.3918 102.774 73.5052 102.766 73.638 102.755V103.983C73.4997 104.006 73.3614 104.025 73.223 104.042C73.0847 104.058 72.9435 104.066 72.7997 104.066ZM75.3995 104V95.0518H76.8438V104H75.3995ZM76.1299 93.3252C75.8588 93.3252 75.6236 93.2284 75.4244 93.0347C75.2307 92.8354 75.1338 92.6003 75.1338 92.3291C75.1338 92.0524 75.2307 91.8172 75.4244 91.6235C75.6236 91.4299 75.8588 91.333 76.1299 91.333C76.4066 91.333 76.6418 91.4299 76.8355 91.6235C77.0292 91.8172 77.126 92.0524 77.126 92.3291C77.126 92.6003 77.0292 92.8354 76.8355 93.0347C76.6418 93.2284 76.4066 93.3252 76.1299 93.3252ZM82.8137 104.158C81.967 104.158 81.2338 103.972 80.614 103.602C79.9997 103.225 79.5238 102.691 79.1863 102C78.8542 101.308 78.6882 100.486 78.6882 99.5342V99.5176C78.6882 98.5602 78.8542 97.7357 79.1863 97.0439C79.5238 96.3522 79.9997 95.821 80.614 95.4502C81.2338 95.0794 81.967 94.894 82.8137 94.894C83.6659 94.894 84.3991 95.0794 85.0134 95.4502C85.6277 95.821 86.1008 96.3522 86.4328 97.0439C86.7704 97.7357 86.9392 98.5602 86.9392 99.5176V99.5342C86.9392 100.486 86.7704 101.308 86.4328 102C86.1008 102.691 85.6277 103.225 85.0134 103.602C84.3991 103.972 83.6659 104.158 82.8137 104.158ZM82.8137 102.879C83.3781 102.879 83.8568 102.747 84.2497 102.481C84.6426 102.215 84.9415 101.833 85.1462 101.335C85.3565 100.837 85.4616 100.237 85.4616 99.5342V99.5176C85.4616 98.8092 85.3565 98.2061 85.1462 97.708C84.9415 97.21 84.6426 96.8309 84.2497 96.5708C83.8568 96.3052 83.3781 96.1724 82.8137 96.1724C82.2492 96.1724 81.7706 96.3052 81.3777 96.5708C80.9848 96.8309 80.6832 97.21 80.4729 97.708C80.2681 98.2061 80.1657 98.8092 80.1657 99.5176V99.5342C80.1657 100.237 80.2681 100.837 80.4729 101.335C80.6832 101.833 80.9848 102.215 81.3777 102.481C81.7706 102.747 82.2492 102.879 82.8137 102.879ZM88.7504 104V95.0518H90.1947V96.3965H90.3275C90.5544 95.9206 90.8809 95.5526 91.307 95.2925C91.7331 95.0269 92.2755 94.894 92.934 94.894C93.9411 94.894 94.7131 95.1818 95.2499 95.7573C95.7922 96.3273 96.0634 97.1436 96.0634 98.2061V104H94.619V98.5547C94.619 97.7467 94.4475 97.1491 94.1044 96.7617C93.7668 96.3688 93.2411 96.1724 92.5272 96.1724C92.0513 96.1724 91.6391 96.2747 91.2904 96.4795C90.9418 96.6842 90.6706 96.9748 90.477 97.3511C90.2888 97.7274 90.1947 98.1784 90.1947 98.7041V104H88.7504ZM102.591 104V102.971L106.642 98.5879C107.151 98.0345 107.549 97.578 107.837 97.2183C108.125 96.853 108.327 96.5238 108.443 96.2305C108.559 95.9372 108.617 95.6162 108.617 95.2676V95.251C108.617 94.8304 108.526 94.4541 108.344 94.1221C108.161 93.79 107.901 93.5272 107.563 93.3335C107.226 93.1398 106.822 93.043 106.351 93.043C105.875 93.043 105.458 93.1426 105.098 93.3418C104.738 93.5355 104.459 93.8094 104.26 94.1636C104.06 94.5122 103.961 94.9217 103.961 95.3921L103.952 95.4087L102.525 95.4004L102.508 95.3921C102.514 94.6838 102.685 94.0557 103.023 93.5078C103.36 92.9544 103.825 92.5228 104.417 92.2129C105.009 91.8975 105.687 91.7397 106.451 91.7397C107.148 91.7397 107.776 91.8864 108.335 92.1797C108.894 92.4674 109.334 92.8631 109.655 93.3667C109.982 93.8703 110.145 94.4458 110.145 95.0933V95.1099C110.145 95.5636 110.065 96.0008 109.904 96.4214C109.749 96.842 109.472 97.3096 109.074 97.8242C108.676 98.3333 108.114 98.9614 107.389 99.7085L104.293 102.904L104.666 102.215V102.904L104.301 102.655H110.344V104H102.591Z" fill="black"/>
<path d="M248.855 95.2529V93.4517C248.855 92.5939 249.071 91.952 249.502 91.5259C249.94 91.0942 250.593 90.8784 251.461 90.8784H253.196V92.2148H251.478C251.063 92.2148 250.745 92.3255 250.523 92.5469C250.302 92.7627 250.191 93.0864 250.191 93.5181V95.2529H248.855ZM254.333 92.2148V90.8784H258.658V92.2148H254.333ZM262.8 95.2529V93.5181C262.8 93.0864 262.687 92.7627 262.46 92.5469C262.239 92.3255 261.923 92.2148 261.514 92.2148H259.795V90.8784H261.53C262.399 90.8784 263.049 91.0942 263.481 91.5259C263.918 91.952 264.137 92.5939 264.137 93.4517V95.2529H262.8ZM262.8 100.648V96.3901H264.137V100.648H262.8ZM259.795 106.16V104.824H261.514C261.923 104.824 262.239 104.716 262.46 104.5C262.687 104.279 262.8 103.952 262.8 103.521V101.786H264.137V103.587C264.137 104.445 263.918 105.087 263.481 105.513C263.049 105.944 262.399 106.16 261.53 106.16H259.795ZM254.333 106.16V104.824H258.658V106.16H254.333ZM251.461 106.16C250.593 106.16 249.94 105.944 249.502 105.513C249.071 105.087 248.855 104.445 248.855 103.587V101.786H250.191V103.521C250.191 103.952 250.302 104.279 250.523 104.5C250.745 104.716 251.063 104.824 251.478 104.824H253.196V106.16H251.461ZM248.855 100.648V96.3901H250.191V100.648H248.855Z" fill="black"/>
<mask id="path-10-outside-3_2_1376" maskUnits="userSpaceOnUse" x="32.5" y="120" width="250" height="45" fill="black">
<rect fill="white" x="32.5" y="120" width="250" height="45"/>
<path d="M32.5 120H282.5V164H32.5V120Z"/>
</mask>
<path d="M282.5 164V163.5H32.5V164V164.5H282.5V164Z" fill="#808080" fill-opacity="0.55" mask="url(#path-10-outside-3_2_1376)"/>
<path d="M49.0728 148L53.4888 136.022H54.6343V137.956H54.1611L50.6416 148H49.0728ZM51.0732 144.572L51.5381 143.302H56.9502L57.415 144.572H51.0732ZM57.8135 148L54.2939 137.956V136.022H54.9663L59.3823 148H57.8135ZM64.0324 148.158C63.1968 148.158 62.4719 147.967 61.8576 147.585C61.2433 147.203 60.7674 146.664 60.4299 145.966C60.0923 145.269 59.9235 144.447 59.9235 143.501V143.484C59.9235 142.555 60.0895 141.747 60.4216 141.061C60.7591 140.374 61.235 139.843 61.8493 139.467C62.4636 139.085 63.1885 138.894 64.0241 138.894C64.749 138.894 65.3744 139.021 65.9001 139.276C66.4258 139.53 66.8464 139.874 67.1618 140.305C67.4772 140.731 67.6792 141.21 67.7678 141.741L67.7761 141.791H66.34L66.3317 141.766C66.221 141.323 65.9693 140.947 65.5763 140.637C65.1834 140.327 64.666 140.172 64.0241 140.172C63.4873 140.172 63.0225 140.308 62.6296 140.579C62.2367 140.85 61.9323 141.235 61.7165 141.733C61.5062 142.225 61.4011 142.809 61.4011 143.484V143.501C61.4011 144.187 61.509 144.785 61.7248 145.294C61.9406 145.798 62.245 146.188 62.6379 146.464C63.0308 146.741 63.4929 146.879 64.0241 146.879C64.6273 146.879 65.1198 146.749 65.5016 146.489C65.8835 146.229 66.1574 145.85 66.3234 145.352L66.34 145.302L67.7678 145.294L67.7512 145.385C67.6294 145.922 67.4136 146.401 67.1037 146.821C66.7938 147.236 66.3843 147.563 65.8752 147.801C65.3661 148.039 64.7518 148.158 64.0324 148.158ZM72.7997 148.066C71.881 148.066 71.2142 147.881 70.7992 147.51C70.3897 147.139 70.1849 146.528 70.1849 145.676V140.247H68.7738V139.052H70.1849V136.736H71.6791V139.052H73.638V140.247H71.6791V145.311C71.6791 145.836 71.7787 146.215 71.9779 146.448C72.1771 146.675 72.5091 146.788 72.974 146.788C73.1013 146.788 73.2092 146.785 73.2977 146.78C73.3918 146.774 73.5052 146.766 73.638 146.755V147.983C73.4997 148.006 73.3614 148.025 73.223 148.042C73.0847 148.058 72.9435 148.066 72.7997 148.066ZM75.3995 148V139.052H76.8438V148H75.3995ZM76.1299 137.325C75.8588 137.325 75.6236 137.228 75.4244 137.035C75.2307 136.835 75.1338 136.6 75.1338 136.329C75.1338 136.052 75.2307 135.817 75.4244 135.624C75.6236 135.43 75.8588 135.333 76.1299 135.333C76.4066 135.333 76.6418 135.43 76.8355 135.624C77.0292 135.817 77.126 136.052 77.126 136.329C77.126 136.6 77.0292 136.835 76.8355 137.035C76.6418 137.228 76.4066 137.325 76.1299 137.325ZM82.8137 148.158C81.967 148.158 81.2338 147.972 80.614 147.602C79.9997 147.225 79.5238 146.691 79.1863 146C78.8542 145.308 78.6882 144.486 78.6882 143.534V143.518C78.6882 142.56 78.8542 141.736 79.1863 141.044C79.5238 140.352 79.9997 139.821 80.614 139.45C81.2338 139.079 81.967 138.894 82.8137 138.894C83.6659 138.894 84.3991 139.079 85.0134 139.45C85.6277 139.821 86.1008 140.352 86.4328 141.044C86.7704 141.736 86.9392 142.56 86.9392 143.518V143.534C86.9392 144.486 86.7704 145.308 86.4328 146C86.1008 146.691 85.6277 147.225 85.0134 147.602C84.3991 147.972 83.6659 148.158 82.8137 148.158ZM82.8137 146.879C83.3781 146.879 83.8568 146.747 84.2497 146.481C84.6426 146.215 84.9415 145.833 85.1462 145.335C85.3565 144.837 85.4616 144.237 85.4616 143.534V143.518C85.4616 142.809 85.3565 142.206 85.1462 141.708C84.9415 141.21 84.6426 140.831 84.2497 140.571C83.8568 140.305 83.3781 140.172 82.8137 140.172C82.2492 140.172 81.7706 140.305 81.3777 140.571C80.9848 140.831 80.6832 141.21 80.4729 141.708C80.2681 142.206 80.1657 142.809 80.1657 143.518V143.534C80.1657 144.237 80.2681 144.837 80.4729 145.335C80.6832 145.833 80.9848 146.215 81.3777 146.481C81.7706 146.747 82.2492 146.879 82.8137 146.879ZM88.7504 148V139.052H90.1947V140.396H90.3275C90.5544 139.921 90.8809 139.553 91.307 139.292C91.7331 139.027 92.2755 138.894 92.934 138.894C93.9411 138.894 94.7131 139.182 95.2499 139.757C95.7922 140.327 96.0634 141.144 96.0634 142.206V148H94.619V142.555C94.619 141.747 94.4475 141.149 94.1044 140.762C93.7668 140.369 93.2411 140.172 92.5272 140.172C92.0513 140.172 91.6391 140.275 91.2904 140.479C90.9418 140.684 90.6706 140.975 90.477 141.351C90.2888 141.727 90.1947 142.178 90.1947 142.704V148H88.7504ZM106.667 148.199C105.842 148.199 105.123 148.058 104.509 147.776C103.894 147.494 103.407 147.106 103.048 146.614C102.693 146.121 102.489 145.56 102.433 144.929L102.425 144.829H103.861L103.869 144.912C103.908 145.305 104.046 145.651 104.284 145.95C104.528 146.249 104.852 146.484 105.256 146.655C105.665 146.821 106.136 146.904 106.667 146.904C107.192 146.904 107.652 146.813 108.045 146.63C108.443 146.448 108.753 146.196 108.974 145.875C109.196 145.549 109.306 145.175 109.306 144.754V144.738C109.306 144.002 109.06 143.437 108.568 143.044C108.081 142.646 107.417 142.447 106.575 142.447H105.073V141.185H106.509C106.985 141.185 107.406 141.097 107.771 140.919C108.136 140.737 108.421 140.491 108.626 140.181C108.83 139.865 108.933 139.508 108.933 139.11V139.093C108.933 138.673 108.844 138.316 108.667 138.022C108.49 137.729 108.23 137.505 107.887 137.35C107.549 137.195 107.137 137.118 106.65 137.118C106.18 137.118 105.759 137.198 105.388 137.358C105.023 137.513 104.73 137.737 104.509 138.031C104.287 138.324 104.154 138.673 104.11 139.077L104.102 139.16H102.666L102.674 139.077C102.74 138.424 102.945 137.854 103.288 137.367C103.637 136.88 104.096 136.501 104.666 136.229C105.242 135.958 105.903 135.823 106.65 135.823C107.414 135.823 108.078 135.956 108.642 136.221C109.212 136.481 109.652 136.844 109.962 137.309C110.278 137.768 110.435 138.302 110.435 138.911V138.927C110.435 139.42 110.327 139.857 110.112 140.239C109.896 140.621 109.597 140.939 109.215 141.193C108.833 141.448 108.393 141.628 107.895 141.733V141.766C108.77 141.838 109.475 142.134 110.012 142.654C110.554 143.169 110.825 143.852 110.825 144.705V144.721C110.825 145.385 110.646 145.98 110.286 146.506C109.926 147.032 109.434 147.447 108.808 147.751C108.183 148.05 107.469 148.199 106.667 148.199Z" fill="black"/>
<path d="M248.855 139.253V137.452C248.855 136.594 249.071 135.952 249.502 135.526C249.94 135.094 250.593 134.878 251.461 134.878H253.196V136.215H251.478C251.063 136.215 250.745 136.326 250.523 136.547C250.302 136.763 250.191 137.086 250.191 137.518V139.253H248.855ZM254.333 136.215V134.878H258.658V136.215H254.333ZM262.8 139.253V137.518C262.8 137.086 262.687 136.763 262.46 136.547C262.239 136.326 261.923 136.215 261.514 136.215H259.795V134.878H261.53C262.399 134.878 263.049 135.094 263.481 135.526C263.918 135.952 264.137 136.594 264.137 137.452V139.253H262.8ZM262.8 144.648V140.39H264.137V144.648H262.8ZM259.795 150.16V148.824H261.514C261.923 148.824 262.239 148.716 262.46 148.5C262.687 148.279 262.8 147.952 262.8 147.521V145.786H264.137V147.587C264.137 148.445 263.918 149.087 263.481 149.513C263.049 149.944 262.399 150.16 261.53 150.16H259.795ZM254.333 150.16V148.824H258.658V150.16H254.333ZM251.461 150.16C250.593 150.16 249.94 149.944 249.502 149.513C249.071 149.087 248.855 148.445 248.855 147.587V145.786H250.191V147.521C250.191 147.952 250.302 148.279 250.523 148.5C250.745 148.716 251.063 148.824 251.478 148.824H253.196V150.16H251.461ZM248.855 144.648V140.39H250.191V144.648H248.855Z" fill="black"/>
<mask id="path-14-outside-4_2_1376" maskUnits="userSpaceOnUse" x="32.5" y="164" width="250" height="45" fill="black">
<rect fill="white" x="32.5" y="164" width="250" height="45"/>
<path d="M32.5 164H282.5V208H32.5V164Z"/>
</mask>
<path d="M282.5 208V207.5H32.5V208V208.5H282.5V208Z" fill="#808080" fill-opacity="0.55" mask="url(#path-14-outside-4_2_1376)"/>
<path d="M50.0273 192V180.022H54.6011C55.3703 180.022 56.0399 180.171 56.6099 180.47C57.1854 180.764 57.6309 181.176 57.9463 181.707C58.2617 182.238 58.4194 182.864 58.4194 183.583V183.6C58.4194 184.43 58.2064 185.149 57.7803 185.758C57.3542 186.367 56.7648 186.79 56.0122 187.028L58.7847 192H57.0332L54.4683 187.26C54.4572 187.26 54.4434 187.26 54.4268 187.26C54.4102 187.26 54.3963 187.26 54.3853 187.26H51.5215V192H50.0273ZM51.5215 185.932H54.4683C55.2375 185.932 55.8296 185.736 56.2446 185.343C56.6652 184.944 56.8755 184.38 56.8755 183.649V183.633C56.8755 182.919 56.6569 182.36 56.2197 181.956C55.7826 181.552 55.1766 181.35 54.4019 181.35H51.5215V185.932ZM62.9782 192.158C62.4137 192.158 61.9046 192.05 61.4509 191.834C61.0026 191.618 60.6457 191.311 60.3801 190.913C60.12 190.514 59.9899 190.044 59.9899 189.501V189.485C59.9899 188.954 60.1172 188.5 60.3718 188.124C60.6263 187.742 60.9971 187.443 61.4841 187.227C61.971 187.011 62.5604 186.884 63.2521 186.845L66.5392 186.646V187.8L63.4264 187.999C62.7458 188.038 62.2477 188.179 61.9323 188.422C61.6224 188.666 61.4675 189.009 61.4675 189.452V189.468C61.4675 189.922 61.639 190.276 61.9821 190.531C62.3252 190.78 62.7568 190.904 63.277 190.904C63.7695 190.904 64.2067 190.807 64.5886 190.614C64.9704 190.415 65.2692 190.146 65.485 189.809C65.7064 189.471 65.8171 189.089 65.8171 188.663V185.874C65.8171 185.321 65.6483 184.9 65.3107 184.612C64.9787 184.319 64.4779 184.172 63.8083 184.172C63.2715 184.172 62.8316 184.269 62.4885 184.463C62.1454 184.651 61.9157 184.919 61.7995 185.268L61.7912 185.293H60.3469L60.3552 185.243C60.4326 184.773 60.6263 184.363 60.9362 184.015C61.2516 183.66 61.6584 183.387 62.1564 183.193C62.6545 182.994 63.2217 182.894 63.8581 182.894C64.5886 182.894 65.2056 183.013 65.7092 183.251C66.2183 183.489 66.6029 183.832 66.863 184.28C67.1286 184.723 67.2614 185.254 67.2614 185.874V192H65.8171V190.68H65.6843C65.4961 190.996 65.2665 191.264 64.9953 191.485C64.7297 191.707 64.4281 191.875 64.0905 191.992C63.7529 192.102 63.3822 192.158 62.9782 192.158ZM69.4711 192V183.052H70.9154V184.396H71.0482C71.2751 183.921 71.6016 183.553 72.0277 183.292C72.4538 183.027 72.9961 182.894 73.6546 182.894C74.6618 182.894 75.4338 183.182 75.9706 183.757C76.5129 184.327 76.784 185.144 76.784 186.206V192H75.3397V186.555C75.3397 185.747 75.1682 185.149 74.8251 184.762C74.4875 184.369 73.9618 184.172 73.2479 184.172C72.772 184.172 72.3597 184.275 72.0111 184.479C71.6625 184.684 71.3913 184.975 71.1976 185.351C71.0095 185.727 70.9154 186.178 70.9154 186.704V192H69.4711ZM82.2725 192.158C81.5199 192.158 80.8614 191.967 80.2969 191.585C79.7325 191.203 79.2953 190.666 78.9854 189.975C78.6755 189.277 78.5205 188.464 78.5205 187.534V187.518C78.5205 186.582 78.6755 185.769 78.9854 185.077C79.2953 184.385 79.7297 183.849 80.2886 183.467C80.8531 183.085 81.5144 182.894 82.2725 182.894C82.682 182.894 83.0666 182.96 83.4263 183.093C83.7915 183.221 84.1153 183.4 84.3975 183.633C84.6797 183.865 84.9011 184.142 85.0616 184.463H85.1944V179.499H86.6387V192H85.1944V190.572H85.0616C84.8789 190.904 84.6493 191.189 84.3726 191.427C84.0959 191.66 83.7805 191.84 83.4263 191.967C83.0721 192.094 82.6875 192.158 82.2725 192.158ZM82.6045 190.879C83.1468 190.879 83.6145 190.744 84.0074 190.473C84.4003 190.201 84.7019 189.817 84.9121 189.319C85.1224 188.815 85.2276 188.22 85.2276 187.534V187.518C85.2276 186.826 85.1224 186.231 84.9121 185.733C84.7019 185.235 84.4003 184.85 84.0074 184.579C83.6145 184.308 83.1468 184.172 82.6045 184.172C82.0622 184.172 81.5946 184.308 81.2017 184.579C80.8143 184.845 80.5155 185.227 80.3052 185.725C80.1005 186.223 79.9981 186.82 79.9981 187.518V187.534C79.9981 188.226 80.1005 188.824 80.3052 189.327C80.5155 189.825 80.8143 190.21 81.2017 190.481C81.5946 190.747 82.0622 190.879 82.6045 190.879ZM92.6584 192.158C91.8117 192.158 91.0785 191.972 90.4587 191.602C89.8445 191.225 89.3685 190.691 89.031 190C88.6989 189.308 88.5329 188.486 88.5329 187.534V187.518C88.5329 186.56 88.6989 185.736 89.031 185.044C89.3685 184.352 89.8445 183.821 90.4587 183.45C91.0785 183.079 91.8117 182.894 92.6584 182.894C93.5106 182.894 94.2439 183.079 94.8581 183.45C95.4724 183.821 95.9455 184.352 96.2776 185.044C96.6151 185.736 96.7839 186.56 96.7839 187.518V187.534C96.7839 188.486 96.6151 189.308 96.2776 190C95.9455 190.691 95.4724 191.225 94.8581 191.602C94.2439 191.972 93.5106 192.158 92.6584 192.158ZM92.6584 190.879C93.2229 190.879 93.7015 190.747 94.0945 190.481C94.4874 190.215 94.7862 189.833 94.9909 189.335C95.2012 188.837 95.3064 188.237 95.3064 187.534V187.518C95.3064 186.809 95.2012 186.206 94.9909 185.708C94.7862 185.21 94.4874 184.831 94.0945 184.571C93.7015 184.305 93.2229 184.172 92.6584 184.172C92.094 184.172 91.6153 184.305 91.2224 184.571C90.8295 184.831 90.5279 185.21 90.3176 185.708C90.1128 186.206 90.0105 186.809 90.0105 187.518V187.534C90.0105 188.237 90.1128 188.837 90.3176 189.335C90.5279 189.833 90.8295 190.215 91.2224 190.481C91.6153 190.747 92.094 190.879 92.6584 190.879ZM98.5951 192V183.052H100.039V184.413H100.172C100.371 183.932 100.676 183.558 101.085 183.292C101.5 183.027 102.001 182.894 102.588 182.894C102.992 182.894 103.354 182.96 103.675 183.093C103.996 183.226 104.273 183.411 104.505 183.649C104.738 183.882 104.923 184.153 105.061 184.463H105.194C105.355 184.147 105.571 183.874 105.842 183.641C106.113 183.403 106.426 183.221 106.78 183.093C107.139 182.96 107.524 182.894 107.933 182.894C108.542 182.894 109.057 183.007 109.477 183.234C109.904 183.461 110.227 183.793 110.449 184.23C110.67 184.662 110.781 185.191 110.781 185.816V192H109.336V186.148C109.336 185.705 109.267 185.34 109.129 185.052C108.996 184.759 108.791 184.54 108.515 184.396C108.238 184.247 107.889 184.172 107.469 184.172C107.054 184.172 106.691 184.266 106.381 184.455C106.071 184.643 105.831 184.895 105.659 185.21C105.488 185.52 105.402 185.866 105.402 186.248V192H103.957V185.924C103.957 185.57 103.88 185.263 103.725 185.002C103.576 184.737 103.36 184.532 103.078 184.388C102.801 184.244 102.474 184.172 102.098 184.172C101.711 184.172 101.359 184.275 101.044 184.479C100.734 184.684 100.488 184.961 100.305 185.31C100.128 185.653 100.039 186.035 100.039 186.455V192H98.5951ZM116.536 192L120.952 180.022H122.098V181.956H121.625L118.105 192H116.536ZM118.537 188.572L119.002 187.302H124.414L124.879 188.572H118.537ZM125.277 192L121.758 181.956V180.022H122.43L126.846 192H125.277ZM131.496 192.158C130.66 192.158 129.935 191.967 129.321 191.585C128.707 191.203 128.231 190.664 127.893 189.966C127.556 189.269 127.387 188.447 127.387 187.501V187.484C127.387 186.555 127.553 185.747 127.885 185.061C128.223 184.374 128.699 183.843 129.313 183.467C129.927 183.085 130.652 182.894 131.488 182.894C132.213 182.894 132.838 183.021 133.364 183.276C133.889 183.53 134.31 183.874 134.625 184.305C134.941 184.731 135.143 185.21 135.231 185.741L135.24 185.791H133.804L133.795 185.766C133.685 185.323 133.433 184.947 133.04 184.637C132.647 184.327 132.13 184.172 131.488 184.172C130.951 184.172 130.486 184.308 130.093 184.579C129.7 184.85 129.396 185.235 129.18 185.733C128.97 186.225 128.865 186.809 128.865 187.484V187.501C128.865 188.187 128.973 188.785 129.188 189.294C129.404 189.798 129.709 190.188 130.102 190.464C130.494 190.741 130.956 190.879 131.488 190.879C132.091 190.879 132.583 190.749 132.965 190.489C133.347 190.229 133.621 189.85 133.787 189.352L133.804 189.302L135.231 189.294L135.215 189.385C135.093 189.922 134.877 190.401 134.567 190.821C134.257 191.236 133.848 191.563 133.339 191.801C132.83 192.039 132.215 192.158 131.496 192.158ZM140.263 192.066C139.345 192.066 138.678 191.881 138.263 191.51C137.853 191.139 137.649 190.528 137.649 189.676V184.247H136.237V183.052H137.649V180.736H139.143V183.052H141.102V184.247H139.143V189.311C139.143 189.836 139.242 190.215 139.442 190.448C139.641 190.675 139.973 190.788 140.438 190.788C140.565 190.788 140.673 190.785 140.761 190.78C140.855 190.774 140.969 190.766 141.102 190.755V191.983C140.963 192.006 140.825 192.025 140.687 192.042C140.548 192.058 140.407 192.066 140.263 192.066ZM142.863 192V183.052H144.307V192H142.863ZM143.594 181.325C143.322 181.325 143.087 181.228 142.888 181.035C142.694 180.835 142.597 180.6 142.597 180.329C142.597 180.052 142.694 179.817 142.888 179.624C143.087 179.43 143.322 179.333 143.594 179.333C143.87 179.333 144.105 179.43 144.299 179.624C144.493 179.817 144.59 180.052 144.59 180.329C144.59 180.6 144.493 180.835 144.299 181.035C144.105 181.228 143.87 181.325 143.594 181.325ZM150.277 192.158C149.431 192.158 148.697 191.972 148.078 191.602C147.463 191.225 146.987 190.691 146.65 190C146.318 189.308 146.152 188.486 146.152 187.534V187.518C146.152 186.56 146.318 185.736 146.65 185.044C146.987 184.352 147.463 183.821 148.078 183.45C148.697 183.079 149.431 182.894 150.277 182.894C151.13 182.894 151.863 183.079 152.477 183.45C153.091 183.821 153.564 184.352 153.896 185.044C154.234 185.736 154.403 186.56 154.403 187.518V187.534C154.403 188.486 154.234 189.308 153.896 190C153.564 190.691 153.091 191.225 152.477 191.602C151.863 191.972 151.13 192.158 150.277 192.158ZM150.277 190.879C150.842 190.879 151.32 190.747 151.713 190.481C152.106 190.215 152.405 189.833 152.61 189.335C152.82 188.837 152.925 188.237 152.925 187.534V187.518C152.925 186.809 152.82 186.206 152.61 185.708C152.405 185.21 152.106 184.831 151.713 184.571C151.32 184.305 150.842 184.172 150.277 184.172C149.713 184.172 149.234 184.305 148.841 184.571C148.448 184.831 148.147 185.21 147.937 185.708C147.732 186.206 147.629 186.809 147.629 187.518V187.534C147.629 188.237 147.732 188.837 147.937 189.335C148.147 189.833 148.448 190.215 148.841 190.481C149.234 190.747 149.713 190.879 150.277 190.879ZM156.214 192V183.052H157.658V184.396H157.791C158.018 183.921 158.345 183.553 158.771 183.292C159.197 183.027 159.739 182.894 160.398 182.894C161.405 182.894 162.177 183.182 162.714 183.757C163.256 184.327 163.527 185.144 163.527 186.206V192H162.083V186.555C162.083 185.747 161.911 185.149 161.568 184.762C161.23 184.369 160.705 184.172 159.991 184.172C159.515 184.172 159.103 184.275 158.754 184.479C158.405 184.684 158.134 184.975 157.941 185.351C157.752 185.727 157.658 186.178 157.658 186.704V192H156.214Z" fill="black"/>
<path d="M248.855 183.253V181.452C248.855 180.594 249.071 179.952 249.502 179.526C249.94 179.094 250.593 178.878 251.461 178.878H253.196V180.215H251.478C251.063 180.215 250.745 180.326 250.523 180.547C250.302 180.763 250.191 181.086 250.191 181.518V183.253H248.855ZM254.333 180.215V178.878H258.658V180.215H254.333ZM262.8 183.253V181.518C262.8 181.086 262.687 180.763 262.46 180.547C262.239 180.326 261.923 180.215 261.514 180.215H259.795V178.878H261.53C262.399 178.878 263.049 179.094 263.481 179.526C263.918 179.952 264.137 180.594 264.137 181.452V183.253H262.8ZM262.8 188.648V184.39H264.137V188.648H262.8ZM259.795 194.16V192.824H261.514C261.923 192.824 262.239 192.716 262.46 192.5C262.687 192.279 262.8 191.952 262.8 191.521V189.786H264.137V191.587C264.137 192.445 263.918 193.087 263.481 193.513C263.049 193.944 262.399 194.16 261.53 194.16H259.795ZM254.333 194.16V192.824H258.658V194.16H254.333ZM251.461 194.16C250.593 194.16 249.94 193.944 249.502 193.513C249.071 193.087 248.855 192.445 248.855 191.587V189.786H250.191V191.521C250.191 191.952 250.302 192.279 250.523 192.5C250.745 192.716 251.063 192.824 251.478 192.824H253.196V194.16H251.461ZM248.855 188.648V184.39H250.191V188.648H248.855Z" fill="black"/>
</g>
</g>
<defs>
<filter id="filter0_d_2_1376" x="0.5" y="0" width="314" height="240" filterUnits="userSpaceOnUse" color-interpolation-filters="sRGB">
<feFlood flood-opacity="0" result="BackgroundImageFix"/>
<feColorMatrix in="SourceAlpha" type="matrix" values="0 0 0 0 0 0 0 0 0 0 0 0 0 0 0 0 0 0 127 0" result="hardAlpha"/>
<feOffset/>
<feGaussianBlur stdDeviation="16"/>
<feComposite in2="hardAlpha" operator="out"/>
<feColorMatrix type="matrix" values="0 0 0 0 0 0 0 0 0 0 0 0 0 0 0 0 0 0 0.2 0"/>
<feBlend mode="normal" in2="BackgroundImageFix" result="effect1_dropShadow_2_1376"/>
<feBlend mode="normal" in="SourceGraphic" in2="effect1_dropShadow_2_1376" result="shape"/>
</filter>
<clipPath id="clip0_2_1376">
<rect x="32.5" y="32" width="250" height="176" rx="12" fill="white"/>
</clipPath>
<clipPath id="clip1_2_1376">
<rect width="251" height="176" fill="white" transform="translate(32 32)"/>
</clipPath>
</defs>
</svg>
